

<svg id="Layer_1" data-name="Layer 1" xmlns="http://www.w3.org/2000/svg" viewBox="0 0 432.06 78.55">
  <title>nikos4</title>
  <g>
    <path d="M467.92,177.46a1.8,1.8,0,0,1,3.6,0v26.21h-4.75l-9.39-21.6v0h-.07v19.8a1.8,1.8,0,1,1-3.6,0v-26.2h4.75l9.4,21.85h0Z" transform="translate(-453.7 -175.63)"/>
    <path d="M490.31,200.18h2.59c1.15,0,2.38.25,2.38,1.73s-1.37,1.73-2.38,1.73h-8.78c-1,0-2.38-.22-2.38-1.73s1.22-1.73,2.38-1.73h2.74V187.69h-2.74c-1,0-2.38-.22-2.38-1.73s1.22-1.73,2.38-1.73h3.64c2,0,2.56.36,2.56,2.41Zm-5.22-22.93a1.43,1.43,0,0,1,1.62-1.62h2a1.43,1.43,0,0,1,1.62,1.62v1.66a1.43,1.43,0,0,1-1.62,1.62h-2a1.43,1.43,0,0,1-1.62-1.62Z" transform="translate(-453.7 -175.63)"/>
    <path d="M517.34,185.63c.61-.54,1.48-1.4,2.3-1.4a1.74,1.74,0,0,1,1.73,1.76c0,.83-.54,1.22-1.15,1.73l-6.69,5.54,8.13,6.77c.65.54,1.22.94,1.22,1.84a1.74,1.74,0,0,1-1.73,1.76,2.62,2.62,0,0,1-1.62-.83l-8.67-7.23-1.44,1.3v4.39c0,1.19-.25,2.38-1.73,2.38s-1.73-1.19-1.73-2.38V179.48c0-1.19.25-2.38,1.73-2.38s1.73,1.19,1.73,2.38v12.81Z" transform="translate(-453.7 -175.63)"/>
    <path d="M531.89,190.67c0-2.3.47-3.1,2.2-4.5s2.48-1.94,4.9-1.94h2.74c2.41,0,3.2.54,4.9,1.94s2.2,2.2,2.2,4.5v6.52c0,2.27-.58,3.13-2.38,4.64s-2.52,1.8-4.72,1.8H539c-2.2,0-2.92-.29-4.72-1.8s-2.38-2.38-2.38-4.64Zm3.46,6.52c0,.72.25,1.19,1.26,2.05a3.15,3.15,0,0,0,2.38.94h2.74a3.15,3.15,0,0,0,2.38-.94c1-.86,1.26-1.33,1.26-2.05v-6.52c0-.72-.25-1.19-1.26-2.05a3.15,3.15,0,0,0-2.38-.94H539a3.15,3.15,0,0,0-2.38.94c-1,.86-1.26,1.33-1.26,2.05Z" transform="translate(-453.7 -175.63)"/>
    <path d="M568.07,200.18h2.59c1.15,0,2.38.25,2.38,1.73s-1.37,1.73-2.38,1.73h-8.78c-1,0-2.38-.22-2.38-1.73s1.22-1.73,2.38-1.73h2.74V180.56h-2.74c-1,0-2.38-.22-2.38-1.73s1.22-1.73,2.38-1.73h3.64c2,0,2.56.36,2.56,2.41Z" transform="translate(-453.7 -175.63)"/>
    <path d="M589.52,187.69c-1,0-2.38-.22-2.38-1.73s1.22-1.73,2.38-1.73h4.75a5.46,5.46,0,0,1,4.46,1.55,5,5,0,0,1,1.55,4.1l.36,11.73c0,1-.47,2-1.62,2a1.76,1.76,0,0,1-1.76-1.73l-2.38,1.22a3.13,3.13,0,0,1-2.12.5h-3.31a5.41,5.41,0,0,1-3.92-1.22,4.83,4.83,0,0,1-1.8-4.25v-1.51a4.51,4.51,0,0,1,1.69-3.85,5.67,5.67,0,0,1,4-1.3h7.42v-.79c0-2.59-.58-3-3.06-3Zm0,7.27c-.94,0-2.3.25-2.3,1.51v2.3c0,1.15,1.4,1.4,2.23,1.4h3.82l3.82-2v-.76c0-1.91-.54-2.48-2.45-2.48Z" transform="translate(-453.7 -175.63)"/>
    <path d="M609.65,190.67c0-2.3.47-3.1,2.2-4.5s2.48-1.94,4.9-1.94h2.74c2.41,0,3.2.54,4.9,1.94s2.2,2.2,2.2,4.5v6.52c0,2.27-.58,3.13-2.38,4.64s-2.52,1.8-4.72,1.8h-2.74c-2.2,0-2.92-.29-4.72-1.8s-2.38-2.38-2.38-4.64Zm3.46,6.52c0,.72.25,1.19,1.26,2.05a3.15,3.15,0,0,0,2.38.94h2.74a3.15,3.15,0,0,0,2.38-.94c1-.86,1.26-1.33,1.26-2.05v-6.52c0-.72-.25-1.19-1.26-2.05a3.15,3.15,0,0,0-2.38-.94h-2.74a3.15,3.15,0,0,0-2.38.94c-1,.86-1.26,1.33-1.26,2.05Z" transform="translate(-453.7 -175.63)"/>
    <path d="M641.47,187.69c-.72,0-1.94-.14-1.94,1,0,.58.43.79.94,1l8.64,3.92c2.23,1,3.38,2.41,3.38,4.9,0,3.49-2.38,5.15-5.69,5.15h-5.33c-1.8,0-3-.07-4.32-1.08-.65-.5-1.58-1.15-1.58-2a1.77,1.77,0,0,1,1.8-1.73,1.66,1.66,0,0,1,1.33.61,3.64,3.64,0,0,0,2.77.76h4.68c1.22,0,2.88.11,2.88-1.91,0-.83-1-1.37-1.8-1.73l-8.14-3.71c-1.91-.86-3-2-3-4.21,0-2.74,2.16-4.39,4.75-4.39h5.9c1.91,0,2.7.11,4,1.19.65.54,1.37,1,1.37,1.94a1.76,1.76,0,0,1-1.76,1.73,1.84,1.84,0,0,1-1.48-.72,2.52,2.52,0,0,0-2.12-.68Z" transform="translate(-453.7 -175.63)"/>
    <path d="M690.57,201.83a1.8,1.8,0,0,1-3.6,0v-26.2h12a5.29,5.29,0,0,1,4.14,1.48c1.55,1.44,1.69,2.77,1.69,4.72v4.9a5.92,5.92,0,0,1-1.48,4.61c-1.4,1.58-2.88,1.73-4.82,1.73h-7.88Zm0-12.38h8c2.12,0,2.59-.54,2.59-2.59v-5c0-2.05-.47-2.59-2.59-2.59h-8Z" transform="translate(-453.7 -175.63)"/>
    <path d="M719.66,203.63c-1.44,0-2,0-3.1-.94l-1.48-1.3a4.3,4.3,0,0,1-1.76-3.89v-6.66c0-1.84.25-2.92,1.69-4.14l1.22-1a4.65,4.65,0,0,1,3.82-1.44h3.17a4.94,4.94,0,0,1,3.82,1.26l1.4,1.12c1.58,1.26,1.8,2.59,1.8,4.5v2.77c0,2-.32,2.56-2.37,2.56H716.78v1.15a1.69,1.69,0,0,0,.5,1l.86.94a2.9,2.9,0,0,0,2.3.65h7.42c1.15,0,2.38.25,2.38,1.73s-1.37,1.73-2.37,1.73ZM716.78,193h10v-2.09c0-.65,0-1.19-.43-1.62L725,188.12a2.46,2.46,0,0,0-1.66-.43h-2.92a2.79,2.79,0,0,0-1.76.4l-1.19.86a1.57,1.57,0,0,0-.72,1.58Z" transform="translate(-453.7 -175.63)"/>
    <path d="M746.19,197.12c0,1.94-.07,3.06,2.3,3.06h1.76c1.4,0,2.05-.11,2.41-1.51a1.77,1.77,0,0,1,1.73-1.4,1.74,1.74,0,0,1,1.76,1.73,5.15,5.15,0,0,1-1.19,2.88c-1.26,1.51-2.92,1.76-4.75,1.76h-1.76A5.63,5.63,0,0,1,744,201.9c-1.33-1.48-1.26-3-1.26-4.82v-9.39h-1.12c-1,0-2.38-.22-2.38-1.73s1.22-1.73,2.38-1.73h1.12V180.7c0-1.19.25-2.38,1.73-2.38s1.73,1.19,1.73,2.38v3.53H752c1.15,0,2.38.25,2.38,1.73s-1.37,1.73-2.37,1.73h-5.8Z" transform="translate(-453.7 -175.63)"/>
    <path d="M765.16,186.79c0-1.26.14-2.56,1.73-2.56,1.37,0,1.73,1.15,1.73,2.3v1.4l2.7-2.23a5.19,5.19,0,0,1,3.06-1.48h2.77a4.56,4.56,0,0,1,3.38,1.37,5,5,0,0,1,1.55,3.92c0,1.19-.22,2.41-1.69,2.41-1.26,0-1.76-1-1.76-2.12a2.26,2.26,0,0,0-.36-1.51c-.43-.61-1.26-.61-2.09-.61h-1a2.68,2.68,0,0,0-1.73.83l-4.82,4v8.75c0,1.19-.25,2.38-1.73,2.38s-1.73-1.19-1.73-2.38Z" transform="translate(-453.7 -175.63)"/>
    <path d="M796.88,187.69c-1,0-2.38-.22-2.38-1.73s1.22-1.73,2.38-1.73h4.75a5.46,5.46,0,0,1,4.46,1.55,5,5,0,0,1,1.55,4.1l.36,11.73c0,1-.47,2-1.62,2a1.76,1.76,0,0,1-1.76-1.73l-2.38,1.22a3.13,3.13,0,0,1-2.12.5h-3.31a5.41,5.41,0,0,1-3.92-1.22,4.83,4.83,0,0,1-1.8-4.25v-1.51a4.51,4.51,0,0,1,1.69-3.85,5.67,5.67,0,0,1,4-1.3h7.42v-.79c0-2.59-.58-3-3.06-3Zm0,7.27c-.94,0-2.3.25-2.3,1.51v2.3c0,1.15,1.4,1.4,2.23,1.4h3.82l3.82-2v-.76c0-1.91-.54-2.48-2.45-2.48Z" transform="translate(-453.7 -175.63)"/>
    <path d="M828.38,185.63c.61-.54,1.48-1.4,2.3-1.4a1.74,1.74,0,0,1,1.73,1.76c0,.83-.54,1.22-1.15,1.73l-6.7,5.54L832.7,200c.65.54,1.22.94,1.22,1.84a1.74,1.74,0,0,1-1.73,1.76,2.62,2.62,0,0,1-1.62-.83l-8.67-7.23-1.44,1.3v4.39c0,1.19-.25,2.38-1.73,2.38s-1.73-1.19-1.73-2.38V179.48c0-1.19.25-2.38,1.73-2.38s1.73,1.19,1.73,2.38v12.81Z" transform="translate(-453.7 -175.63)"/>
    <path d="M853.18,200.18h2.59c1.15,0,2.38.25,2.38,1.73s-1.37,1.73-2.38,1.73H847c-1,0-2.38-.22-2.38-1.73s1.22-1.73,2.38-1.73h2.74V187.69H847c-1,0-2.38-.22-2.38-1.73s1.22-1.73,2.38-1.73h3.63c2,0,2.56.36,2.56,2.41ZM848,177.25a1.43,1.43,0,0,1,1.62-1.62h2a1.43,1.43,0,0,1,1.62,1.62v1.66a1.43,1.43,0,0,1-1.62,1.62h-2A1.43,1.43,0,0,1,848,178.9Z" transform="translate(-453.7 -175.63)"/>
    <path d="M874.75,187.69c-.72,0-1.94-.14-1.94,1,0,.58.43.79.94,1l8.64,3.92c2.23,1,3.38,2.41,3.38,4.9,0,3.49-2.37,5.15-5.69,5.15h-5.33c-1.8,0-3-.07-4.32-1.08-.65-.5-1.58-1.15-1.58-2a1.77,1.77,0,0,1,1.8-1.73,1.67,1.67,0,0,1,1.33.61,3.64,3.64,0,0,0,2.77.76h4.68c1.22,0,2.88.11,2.88-1.91,0-.83-1-1.37-1.8-1.73l-8.13-3.71c-1.91-.86-3-2-3-4.21,0-2.74,2.16-4.39,4.75-4.39H880c1.91,0,2.7.11,4,1.19.65.54,1.37,1,1.37,1.94a1.76,1.76,0,0,1-1.76,1.73,1.84,1.84,0,0,1-1.48-.72,2.52,2.52,0,0,0-2.12-.68Z" transform="translate(-453.7 -175.63)"/>
    <path d="M464.82,246.83c-1.22,0-1.94-.25-2.2-1.55h-.07c-.25,1.3-1,1.55-2.2,1.55h-2.7a2,2,0,0,1-2.2-1.3l-1.26-2.2a2.51,2.51,0,0,1-.5-1.84V220.63a1.8,1.8,0,1,1,3.6,0V241.5l1,1.73h1.55l1-1.73V230.17c0-1.12.5-2.12,1.8-2.12s1.8,1,1.8,2.12V241.5l1,1.73h1.55l1-1.73V220.63a1.8,1.8,0,1,1,3.6,0V241.5a2.51,2.51,0,0,1-.5,1.84l-1.26,2.2a2,2,0,0,1-2.2,1.3Z" transform="translate(-453.7 -175.63)"/>
    <path d="M486.39,246.83c-1.44,0-2,0-3.1-.94l-1.48-1.3a4.3,4.3,0,0,1-1.76-3.89v-6.66c0-1.84.25-2.92,1.69-4.14l1.22-1a4.65,4.65,0,0,1,3.82-1.44h3.17a4.94,4.94,0,0,1,3.82,1.26l1.4,1.12c1.58,1.26,1.8,2.59,1.8,4.5v2.77c0,2-.32,2.56-2.38,2.56H483.51v1.15a1.69,1.69,0,0,0,.5,1l.86.94a2.9,2.9,0,0,0,2.3.65h7.42c1.15,0,2.38.25,2.38,1.73s-1.37,1.73-2.38,1.73Zm-2.88-10.65h10v-2.09c0-.65,0-1.19-.43-1.62l-1.33-1.15a2.45,2.45,0,0,0-1.66-.43h-2.92a2.79,2.79,0,0,0-1.76.4l-1.19.86a1.57,1.57,0,0,0-.72,1.58Z" transform="translate(-453.7 -175.63)"/>
    <path d="M509.43,229.95l.61-.61c1.15-1.15,1.84-1.91,3.42-1.91h3.82a4.13,4.13,0,0,1,2.56,1.22l1.19,1a4.57,4.57,0,0,1,1.87,4v6.95a4.57,4.57,0,0,1-1.87,4l-1.19,1a4.7,4.7,0,0,1-2.7,1.22h-3.56a5,5,0,0,1-3.35-1.76l-.79-.76v.22c0,1.12-.36,2.3-1.73,2.3s-1.73-1.22-1.73-2.41V222.68c0-1.19.25-2.38,1.73-2.38s1.73,1.19,1.73,2.38Zm0,8.57a2.38,2.38,0,0,0,1,2.3l2,1.69c.43.36,1,.86,1.33.86h2.63a1.55,1.55,0,0,0,1.08-.32l1.51-1.26c.4-.32.43-1.15.43-1.84v-6.12a1.85,1.85,0,0,0-.47-1.44l-1.58-1.22a1.22,1.22,0,0,0-.83-.29h-2.41a2.34,2.34,0,0,0-1.44.61l-2.23,1.94a2.41,2.41,0,0,0-1,2.05Z" transform="translate(-453.7 -175.63)"/>
    <path d="M560.9,222.43h-1.33c-1.19,0-2.2-.43-2.2-1.8s1-1.8,2.09-1.8h6c2.81,0,4.21,1.15,5.44,3.6l3.17,6.33a8.32,8.32,0,0,1,0,8.14l-3.28,6.55c-1.26,2.56-2.88,3.38-5.69,3.38h-6a1.8,1.8,0,1,1,0-3.6h1.73Zm3.6,20.81h.68c1.51,0,1.87-.18,2.52-1.51l3.17-6.41a5,5,0,0,0,.68-2.34,6,6,0,0,0-.9-3l-3-6.08c-.76-1.55-1.08-1.51-2.74-1.51h-.43Z" transform="translate(-453.7 -175.63)"/>
    <path d="M590.06,246.83c-1.44,0-2,0-3.1-.94l-1.48-1.3a4.3,4.3,0,0,1-1.76-3.89v-6.66c0-1.84.25-2.92,1.69-4.14l1.22-1a4.65,4.65,0,0,1,3.82-1.44h3.17a4.94,4.94,0,0,1,3.82,1.26l1.4,1.12c1.58,1.26,1.8,2.59,1.8,4.5v2.77c0,2-.32,2.56-2.38,2.56H587.18v1.15a1.69,1.69,0,0,0,.5,1l.86.94a2.9,2.9,0,0,0,2.3.65h7.42c1.15,0,2.38.25,2.38,1.73s-1.37,1.73-2.38,1.73Zm-2.88-10.65h10v-2.09c0-.65,0-1.19-.43-1.62l-1.33-1.15a2.45,2.45,0,0,0-1.66-.43h-2.92a2.79,2.79,0,0,0-1.76.4l-1.19.86a1.57,1.57,0,0,0-.72,1.58Z" transform="translate(-453.7 -175.63)"/>
    <path d="M623.11,231.75V230c0-1.22.22-2.56,1.76-2.56,1.22,0,1.69,1,1.69,2.09V232a2.86,2.86,0,0,1-.4,1.4L621,244.67c-.32.72-.94,2.16-1.8,2.16H617c-.86,0-1.48-1.44-1.8-2.16L610,233.37a2.86,2.86,0,0,1-.4-1.4v-2.45c0-1.12.47-2.09,1.69-2.09,1.55,0,1.76,1.33,1.76,2.56v1.76l5,11.48Z" transform="translate(-453.7 -175.63)"/>
    <path d="M641.9,246.83c-1.44,0-2,0-3.1-.94l-1.48-1.3a4.3,4.3,0,0,1-1.76-3.89v-6.66c0-1.84.25-2.92,1.69-4.14l1.22-1a4.65,4.65,0,0,1,3.82-1.44h3.17a4.94,4.94,0,0,1,3.82,1.26l1.4,1.12c1.58,1.26,1.8,2.59,1.8,4.5v2.77c0,2-.32,2.56-2.38,2.56H639v1.15a1.69,1.69,0,0,0,.5,1l.86.94a2.9,2.9,0,0,0,2.3.65h7.42c1.15,0,2.38.25,2.38,1.73s-1.37,1.73-2.38,1.73ZM639,236.18h10v-2.09c0-.65,0-1.19-.43-1.62l-1.33-1.15a2.45,2.45,0,0,0-1.66-.43h-2.92a2.79,2.79,0,0,0-1.76.4l-1.19.86a1.57,1.57,0,0,0-.72,1.58Z" transform="translate(-453.7 -175.63)"/>
    <path d="M671.75,243.38h2.59c1.15,0,2.38.25,2.38,1.73s-1.37,1.73-2.38,1.73h-8.78c-1,0-2.38-.22-2.38-1.73s1.22-1.73,2.38-1.73h2.74V223.76h-2.74c-1,0-2.38-.22-2.38-1.73s1.22-1.73,2.38-1.73h3.64c2,0,2.56.36,2.56,2.41Z" transform="translate(-453.7 -175.63)"/>
    <path d="M687.41,233.87c0-2.3.47-3.1,2.2-4.5s2.48-1.94,4.9-1.94h2.74c2.41,0,3.2.54,4.89,1.94s2.2,2.2,2.2,4.5v6.52c0,2.27-.58,3.13-2.38,4.64s-2.52,1.8-4.71,1.8H694.5c-2.2,0-2.92-.29-4.71-1.8s-2.38-2.38-2.38-4.64Zm3.46,6.52c0,.72.25,1.19,1.26,2.05a3.15,3.15,0,0,0,2.38.94h2.74a3.15,3.15,0,0,0,2.38-.94c1-.86,1.26-1.33,1.26-2.05v-6.52c0-.72-.25-1.19-1.26-2.05a3.15,3.15,0,0,0-2.37-.94H694.5a3.15,3.15,0,0,0-2.38.94c-1,.86-1.26,1.33-1.26,2.05Z" transform="translate(-453.7 -175.63)"/>
    <path d="M730.24,239.34c0,2.48-.18,3.42-2.2,5L726,246c-.72.58-1.84,1.55-2.77,1.55h-2.34c-1.55,0-2.27-1-3.38-2.05l-.68-.65v6.95c0,1.19-.25,2.38-1.73,2.38s-1.73-1.19-1.73-2.38V230c0-1.22.14-2.56,1.73-2.56,1.4,0,1.73,1.12,1.73,2.27v.43l.68-.61c.9-.79,2.27-2.09,3.24-2.09h2.38c.83,0,1.94.86,2.88,1.58l2.09,1.62c2,1.58,2.2,2.56,2.2,5Zm-3.46-4.18a1.76,1.76,0,0,0-.72-1.51l-2.59-2.16a1.91,1.91,0,0,0-1.19-.61h-.9c-.5,0-1.12.65-1.48,1l-2.16,2.05a2.25,2.25,0,0,0-1,1.84v3.38a2.1,2.1,0,0,0,.5,1.48l2.63,2.48c.5.5,1,1,1.48,1h.9a1.91,1.91,0,0,0,1.19-.61l2.59-2.16a1.76,1.76,0,0,0,.72-1.51Z" transform="translate(-453.7 -175.63)"/>
    <path d="M745.58,246.83c-1.44,0-2,0-3.1-.94L741,244.6a4.3,4.3,0,0,1-1.76-3.89v-6.66c0-1.84.25-2.92,1.69-4.14l1.22-1a4.65,4.65,0,0,1,3.82-1.44h3.17a4.94,4.94,0,0,1,3.82,1.26l1.4,1.12c1.58,1.26,1.8,2.59,1.8,4.5v2.77c0,2-.32,2.56-2.37,2.56H742.7v1.15a1.69,1.69,0,0,0,.5,1l.86.94a2.9,2.9,0,0,0,2.3.65h7.42c1.15,0,2.38.25,2.38,1.73s-1.37,1.73-2.37,1.73Zm-2.88-10.65h10v-2.09c0-.65,0-1.19-.43-1.62l-1.33-1.15a2.46,2.46,0,0,0-1.66-.43h-2.92a2.79,2.79,0,0,0-1.76.4l-1.19.86a1.57,1.57,0,0,0-.72,1.58Z" transform="translate(-453.7 -175.63)"/>
    <path d="M765.16,230c0-1.26.14-2.56,1.73-2.56,1.37,0,1.73,1.15,1.73,2.3v1.4l2.7-2.23a5.19,5.19,0,0,1,3.06-1.48h2.77a4.56,4.56,0,0,1,3.38,1.37,5,5,0,0,1,1.55,3.92c0,1.19-.22,2.41-1.69,2.41-1.26,0-1.76-1-1.76-2.12a2.26,2.26,0,0,0-.36-1.51c-.43-.61-1.26-.61-2.09-.61h-1a2.68,2.68,0,0,0-1.73.83l-4.82,4v8.75c0,1.19-.25,2.38-1.73,2.38s-1.73-1.19-1.73-2.38Z" transform="translate(-453.7 -175.63)"/>
  </g>
</svg>
